<svg width="205" height="209" viewBox="0 0 205 209" fill="none" xmlns="http://www.w3.org/2000/svg">
<path d="M94.7501 2.54793C53.2373 7.18785 10.3074 14.7382 1.88443 55.7706C-0.379183 66.7978 -0.86537 73.6842 1.88443 84.5996C7.71784 107.756 31.4944 108.063 45.3692 127.473C60.5256 148.677 52.8781 172.025 73.3763 188.088C101.047 209.772 152.354 221.554 163.294 188.088C166.881 177.116 163.715 170.059 163.294 158.52C162.383 133.543 143.216 116.448 155.924 94.9485C166.501 77.0518 194.825 88.4615 202.356 69.0763C206.641 58.0482 205.031 50.2968 202.356 38.7689C192.311 -4.53156 138.804 -2.37599 94.7501 2.54793Z" fill="url(#paint0_linear_8_65)"/>
<defs>
<linearGradient id="paint0_linear_8_65" x1="161.997" y1="18.3023" x2="42.6606" y2="178.635" gradientUnits="userSpaceOnUse">
<stop stop-color="#B90F5B"/>
<stop offset="1" stop-color="#841E61"/>
</linearGradient>
</defs>
</svg>
